<?xml version="1.0" encoding="UTF-8" standalone="no" ?>
<!DOCTYPE svg PUBLIC "-//W3C//DTD SVG 1.1//EN" "http://www.w3.org/Graphics/SVG/1.1/DTD/svg11.dtd">
<svg xmlns="http://www.w3.org/2000/svg" xmlns:xlink="http://www.w3.org/1999/xlink" version="1.1" width="1080" height="1080" viewBox="-2 -4 1080 1080" xml:space="preserve">
<desc>Created with Fabric.js 5.2.4</desc>
<defs>
</defs>
<g transform="matrix(1 0 0 1 540 540)" id="441eed00-1de6-48cf-a3e6-e73156465b19"  >
</g>
<g transform="matrix(1 0 0 1 540 540)" id="8094b6f9-fcff-4aac-8a1f-535f6deb6689"  >
<rect style="stroke: none; stroke-width: 1; stroke-dasharray: none; stroke-linecap: butt; stroke-dashoffset: 0; stroke-linejoin: miter; stroke-miterlimit: 4; fill: rgb(95,1,209); fill-rule: nonzero; opacity: 1;" vector-effect="non-scaling-stroke"  x="-540" y="-540" rx="0" ry="0" width="1080" height="1080" />
</g>
<g transform="matrix(0 0 0 0 0 0)"  >
<g style=""   >
</g>
</g>
<g transform="matrix(0.23 0 0 0.23 540 540)"  >
<path style="stroke: rgb(249,246,246); stroke-width: 0; stroke-dasharray: none; stroke-linecap: butt; stroke-dashoffset: 0; stroke-linejoin: miter; stroke-miterlimit: 4; fill: rgb(255,255,255); fill-rule: nonzero; opacity: 1;"  transform=" translate(-1693.17, -1505.25)" d="M 0 732.88 L 645.84 732.88 L 1021.9100000000001 1694.98 L 1402.8700000000001 732.88 L 2031.63 732.88 L 1084.8300000000002 3010.5 L 451.98 3010.5 L 711.1700000000001 2406.9700000000003 L 0.02 732.88 z M 2763.84 1501.63 L 2059.58 1501.63 L 2684.65 0 L 3386.34 0.03 L 2763.84 1501.6299999999999 z M 2244.0600000000004 1645.3500000000001 C 2460.1500000000005 1645.3500000000001 2635.3100000000004 1820.5200000000002 2635.3100000000004 2036.5700000000002 C 2635.3100000000004 2252.63 2460.1500000000005 2427.8 2244.0600000000004 2427.8 C 2028.0000000000005 2427.8 1852.8700000000003 2252.63 1852.8700000000003 2036.5700000000002 C 1852.8700000000003 1820.5200000000002 2028.0300000000004 1645.3500000000001 2244.0600000000004 1645.3500000000001 z" stroke-linecap="round" />
</g>
<g transform="matrix(0 0 0 0 0 0)"  >
<g style=""   >
</g>
</g>
<g transform="matrix(0 0 0 0 0 0)"  >
<g style=""   >
</g>
</g>
</svg>